<svg xmlns="http://www.w3.org/2000/svg" viewBox="0 0 1440 320">
	<path fill="#4b3f97" fill-opacity="1" d="M0,160L120,181.3C240,203,480,245,720,256C960,267,1200,245,1320,234.7L1440,224L1440,320L1320,320C1200,320,960,320,720,320C480,320,240,320,120,320L0,320Z">
	</path>
	<path fill="#4b3f97" fill-opacity="0.8" d="M0,256L120,266.7C240,277,480,299,720,272C960,245,1200,171,1320,133.3L1440,96L1440,320L1320,320C1200,320,960,320,720,320C480,320,240,320,120,320L0,320Z">
	</path>
    <path fill="#4b3f97" fill-opacity="0.6" d="M0,320L120,309.3C240,299,480,277,720,229.3C960,181,1200,107,1320,69.3L1440,32L1440,320L1320,320C1200,320,960,320,720,320C480,320,240,320,120,320L0,320Z">
    </path>
    <path fill="#4b3f97" fill-opacity="0.4" d="M0,64L120,90.7C240,117,480,171,720,197.3C960,224,1200,224,1320,224L1440,224L1440,320L1320,320C1200,320,960,320,720,320C480,320,240,320,120,320L0,320Z">
    </path>
</svg>